<svg width="40" height="40" viewBox="0 0 40 40" fill="none" xmlns="http://www.w3.org/2000/svg">
<path d="M8.88889 24V20H31.1111V24H8.88889ZM8.88889 32V28H24.4444V32H8.88889ZM4.44444 40C3.22222 40 2.1763 39.6087 1.30667 38.826C0.437037 38.0433 0.00148148 37.1013 0 36V8C0 6.9 0.435556 5.95867 1.30667 5.176C2.17778 4.39333 3.2237 4.00133 4.44444 4H6.66667V0H11.1111V4H28.8889V0H33.3333V4H35.5556C36.7778 4 37.8244 4.392 38.6956 5.176C39.5667 5.96 40.0015 6.90133 40 8V36C40 37.1 39.5652 38.042 38.6956 38.826C37.8259 39.61 36.7793 40.0013 35.5556 40H4.44444ZM4.44444 36H35.5556V16H4.44444V36Z" fill="white"/>
</svg>
