<svg width="40" height="40" viewBox="0 0 40 40" fill="none" xmlns="http://www.w3.org/2000/svg">
<path fill-rule="evenodd" clip-rule="evenodd" d="M34.5455 4H5.45455C4.97233 4 4.50987 4.21071 4.1689 4.58579C3.82792 4.96086 3.63636 5.46957 3.63636 6V34C3.63636 34.5304 3.82792 35.0391 4.1689 35.4142C4.50987 35.7893 4.97233 36 5.45455 36H34.5455C35.0277 36 35.4901 35.7893 35.8311 35.4142C36.1721 35.0391 36.3636 34.5304 36.3636 34V6C36.3636 5.46957 36.1721 4.96086 35.8311 4.58579C35.4901 4.21071 35.0277 4 34.5455 4ZM5.45455 0C4.00791 0 2.62053 0.632141 1.5976 1.75736C0.574674 2.88258 0 4.4087 0 6V34C0 35.5913 0.574674 37.1174 1.5976 38.2426C2.62053 39.3679 4.00791 40 5.45455 40H34.5455C35.9921 40 37.3795 39.3679 38.4024 38.2426C39.4253 37.1174 40 35.5913 40 34V6C40 4.4087 39.4253 2.88258 38.4024 1.75736C37.3795 0.632141 35.9921 0 34.5455 0H5.45455ZM9.09091 10H12.7273V14H9.09091V10ZM18.1818 10C17.6996 10 17.2371 10.2107 16.8962 10.5858C16.5552 10.9609 16.3636 11.4696 16.3636 12C16.3636 12.5304 16.5552 13.0391 16.8962 13.4142C17.2371 13.7893 17.6996 14 18.1818 14H29.0909C29.5731 14 30.0356 13.7893 30.3766 13.4142C30.7175 13.0391 30.9091 12.5304 30.9091 12C30.9091 11.4696 30.7175 10.9609 30.3766 10.5858C30.0356 10.2107 29.5731 10 29.0909 10H18.1818ZM12.7273 18H9.09091V22H12.7273V18ZM16.3636 20C16.3636 19.4696 16.5552 18.9609 16.8962 18.5858C17.2371 18.2107 17.6996 18 18.1818 18H29.0909C29.5731 18 30.0356 18.2107 30.3766 18.5858C30.7175 18.9609 30.9091 19.4696 30.9091 20C30.9091 20.5304 30.7175 21.0391 30.3766 21.4142C30.0356 21.7893 29.5731 22 29.0909 22H18.1818C17.6996 22 17.2371 21.7893 16.8962 21.4142C16.5552 21.0391 16.3636 20.5304 16.3636 20ZM12.7273 26H9.09091V30H12.7273V26ZM16.3636 28C16.3636 27.4696 16.5552 26.9609 16.8962 26.5858C17.2371 26.2107 17.6996 26 18.1818 26H29.0909C29.5731 26 30.0356 26.2107 30.3766 26.5858C30.7175 26.9609 30.9091 27.4696 30.9091 28C30.9091 28.5304 30.7175 29.0391 30.3766 29.4142C30.0356 29.7893 29.5731 30 29.0909 30H18.1818C17.6996 30 17.2371 29.7893 16.8962 29.4142C16.5552 29.0391 16.3636 28.5304 16.3636 28Z" fill="white"/>
</svg>
