<svg width="40" height="40" viewBox="0 0 40 40" fill="none" xmlns="http://www.w3.org/2000/svg">
<path d="M26.6785 0H4.4405C1.99156 0 0 1.99156 0 4.4405V35.5595C0 38.0084 1.99156 40 4.4405 40H35.5595C38.0084 40 40 38.0084 40 35.5595V4.4405C40 1.99156 38.0084 0 35.5595 0H26.6785ZM35.5595 11.1012H28.8988V4.4405H35.5595V11.1012ZM4.4405 15.5417H11.1012V24.4583H4.4405V15.5417ZM15.5417 15.5417H24.4583V24.4583H15.5417V15.5417ZM28.8988 15.5417H35.5595V24.4583H28.8988V15.5417ZM24.4583 4.4405V11.1012H15.5417V4.4405H24.4583ZM11.1012 4.4405V11.1012H4.4405V4.4405H11.1012ZM4.4405 28.8988H11.1012V35.5595H4.4405V28.8988ZM15.5417 35.5595V28.8988H24.4583V35.5595H15.5417ZM28.8988 35.5595V28.8988H35.5617V35.5595H28.8988Z" fill="white"/>
</svg>
