<svg width="26" height="25" viewBox="0 0 26 25" fill="none" xmlns="http://www.w3.org/2000/svg">
<path d="M23.1386 25L14.3886 16.25C13.6942 16.8056 12.8956 17.2454 11.9928 17.5694C11.09 17.8935 10.1294 18.0556 9.11085 18.0556C6.5877 18.0556 4.45251 17.1815 2.70529 15.4333C0.958069 13.6852 0.0839955 11.55 0.0830696 9.02778C0.0821437 6.50556 0.956218 4.37037 2.70529 2.62222C4.45437 0.874074 6.58955 0 9.11085 0C11.6321 0 13.7678 0.874074 15.5178 2.62222C17.2678 4.37037 18.1414 6.50556 18.1386 9.02778C18.1386 10.0463 17.9766 11.0069 17.6525 11.9097C17.3284 12.8125 16.8886 13.6111 16.3331 14.3056L25.0831 23.0556L23.1386 25ZM9.11085 15.2778C10.847 15.2778 12.3229 14.6704 13.5386 13.4556C14.7544 12.2407 15.3618 10.7648 15.3608 9.02778C15.3599 7.29074 14.7525 5.81528 13.5386 4.60139C12.3247 3.3875 10.8488 2.77963 9.11085 2.77778C7.37288 2.77593 5.89742 3.3838 4.68446 4.60139C3.4715 5.81898 2.86362 7.29444 2.86085 9.02778C2.85807 10.7611 3.46594 12.237 4.68446 13.4556C5.90298 14.6741 7.37844 15.2815 9.11085 15.2778Z" fill="#F9F9F9"/>
</svg>
