<svg width="40" height="40" viewBox="0 0 40 40" fill="none" xmlns="http://www.w3.org/2000/svg">
<path d="M35.5556 0H4.44444C3.2657 0 2.13524 0.468252 1.30175 1.30175C0.468252 2.13524 0 3.2657 0 4.44444V35.5556C0 36.7343 0.468252 37.8648 1.30175 38.6983C2.13524 39.5317 3.2657 40 4.44444 40H35.5556C38 40 40 38 40 35.5556V4.44444C40 2 38 0 35.5556 0ZM35.5556 35.5556H4.44444V4.44444H35.5556V35.5556ZM17.7778 31.1111H22.2222V22.2222H31.1111V17.7778H22.2222V8.88889H17.7778V17.7778H8.88889V22.2222H17.7778V31.1111Z" fill="#F6F3F3"/>
</svg>
