<svg width="37" height="25" viewBox="0 0 37 25" fill="none" xmlns="http://www.w3.org/2000/svg">
<path fill-rule="evenodd" clip-rule="evenodd" d="M18.3028 0C18.5591 0 18.8049 0.119724 18.9862 0.332834C19.1674 0.545943 19.2692 0.834982 19.2692 1.13636C19.2692 1.43775 19.1674 1.72678 18.9862 1.93989C18.8049 2.153 18.5591 2.27273 18.3028 2.27273H1.39003C1.13371 2.27273 0.88789 2.153 0.70665 1.93989C0.525406 1.72678 0.423584 1.43775 0.423584 1.13636C0.423584 0.834982 0.525406 0.545943 0.70665 0.332834C0.88789 0.119724 1.13371 1.27023e-08 1.39003 0H18.3028ZM18.3028 5.68182C18.4297 5.68182 18.5554 5.71121 18.6726 5.76832C18.7899 5.82543 18.8964 5.90913 18.9862 6.01465C19.0759 6.12017 19.1471 6.24545 19.1957 6.38332C19.2442 6.52118 19.2692 6.66895 19.2692 6.81818C19.2692 6.96741 19.2442 7.11518 19.1957 7.25305C19.1471 7.39092 19.0759 7.51619 18.9862 7.62171C18.8964 7.72723 18.7899 7.81094 18.6726 7.86805C18.5554 7.92515 18.4297 7.95455 18.3028 7.95455H1.39003C1.13371 7.95455 0.88789 7.83482 0.70665 7.62171C0.525406 7.4086 0.423584 7.11957 0.423584 6.81818C0.423584 6.5168 0.525406 6.22776 0.70665 6.01465C0.88789 5.80154 1.13371 5.68182 1.39003 5.68182H18.3028ZM19.2692 12.5C19.2692 11.875 18.8343 11.3636 18.3028 11.3636H1.39003C1.13371 11.3636 0.88789 11.4834 0.70665 11.6965C0.525406 11.9096 0.423584 12.1986 0.423584 12.5C0.423584 12.8014 0.525406 13.0904 0.70665 13.3035C0.88789 13.5166 1.13371 13.6364 1.39003 13.6364H18.3028C18.4297 13.6364 18.5554 13.607 18.6726 13.5499C18.7899 13.4928 18.8964 13.4091 18.9862 13.3035C19.0759 13.198 19.1471 13.0727 19.1957 12.9349C19.2442 12.797 19.2692 12.6492 19.2692 12.5ZM18.3028 17.0455C18.5591 17.0455 18.8049 17.1652 18.9862 17.3783C19.1674 17.5914 19.2692 17.8804 19.2692 18.1818C19.2692 18.4832 19.1674 18.7722 18.9862 18.9853C18.8049 19.1985 18.5591 19.3182 18.3028 19.3182H1.39003C1.13371 19.3182 0.88789 19.1985 0.70665 18.9853C0.525406 18.7722 0.423584 18.4832 0.423584 18.1818C0.423584 17.8804 0.525406 17.5914 0.70665 17.3783C0.88789 17.1652 1.13371 17.0455 1.39003 17.0455H18.3028ZM19.2692 23.8636C19.2692 23.2386 18.8343 22.7273 18.3028 22.7273H1.39003C1.13371 22.7273 0.88789 22.847 0.70665 23.0601C0.525406 23.2732 0.423584 23.5623 0.423584 23.8636C0.423584 24.165 0.525406 24.4541 0.70665 24.6672C0.88789 24.8803 1.13371 25 1.39003 25H18.3028C18.5591 25 18.8049 24.8803 18.9862 24.6672C19.1674 24.4541 19.2692 24.165 19.2692 23.8636ZM30.3833 17.4716L24.343 8.23864H36.4236L30.3833 17.4716Z" fill="#F9F9F9"/>
</svg>
