<svg width="44" height="44" viewBox="0 0 44 44" fill="none" xmlns="http://www.w3.org/2000/svg">
<path d="M2 22C2 12.5726 2 7.85684 4.92842 4.92842C7.85684 2 12.5705 2 22 2C31.4274 2 36.1432 2 39.0716 4.92842C42 7.85684 42 12.5705 42 22C42 31.4274 42 36.1432 39.0716 39.0716C36.1432 42 31.4295 42 22 42C12.5726 42 7.85684 42 4.92842 39.0716C2 36.1432 2 31.4295 2 22Z" stroke="white" stroke-width="4" stroke-linecap="round" stroke-linejoin="round"/>
<path d="M17.7895 14.6315C17.7895 13.794 17.4568 12.9908 16.8646 12.3986C16.2723 11.8063 15.4691 11.4736 14.6316 11.4736C13.7941 11.4736 12.9908 11.8063 12.3986 12.3986C11.8064 12.9908 11.4737 13.794 11.4737 14.6315C11.4737 15.4691 11.8064 16.2723 12.3986 16.8645C12.9908 17.4567 13.7941 17.7894 14.6316 17.7894C15.4691 17.7894 16.2723 17.4567 16.8646 16.8645C17.4568 16.2723 17.7895 15.4691 17.7895 14.6315ZM17.7895 14.6315H32.5263M26.2105 29.3684C26.2105 28.5308 26.5432 27.7276 27.1355 27.1354C27.7277 26.5432 28.5309 26.2105 29.3684 26.2105C30.206 26.2105 31.0092 26.5432 31.6014 27.1354C32.1936 27.7276 32.5263 28.5308 32.5263 29.3684C32.5263 30.2059 32.1936 31.0091 31.6014 31.6013C31.0092 32.1936 30.206 32.5263 29.3684 32.5263C28.5309 32.5263 27.7277 32.1936 27.1355 31.6013C26.5432 31.0091 26.2105 30.2059 26.2105 29.3684ZM26.2105 29.3684H11.4737" stroke="white" stroke-width="4" stroke-linecap="round" stroke-linejoin="round"/>
</svg>
