<svg width="45" height="40" viewBox="0 0 45 40" fill="none" xmlns="http://www.w3.org/2000/svg">
<path fill-rule="evenodd" clip-rule="evenodd" d="M13.9113 0.00125501C11.5774 0.00125501 9.33905 1.05479 7.68873 2.93009C6.03841 4.8054 5.11127 7.34886 5.11127 10.0009C5.11127 12.653 6.03841 15.1965 7.68873 17.0718C9.33905 18.9471 11.5774 20.0006 13.9113 20.0006C16.2452 20.0006 18.4835 18.9471 20.1338 17.0718C21.7841 15.1965 22.7113 12.653 22.7113 10.0009C22.7113 7.34886 21.7841 4.8054 20.1338 2.93009C18.4835 1.05479 16.2452 0.00125501 13.9113 0.00125501ZM9.51127 22.5005C7.17736 22.5005 4.93905 23.5541 3.28873 25.4294C1.63841 27.3047 0.711269 29.8482 0.711269 32.5002V35.0002C0.711269 36.3262 1.17484 37.5979 2 38.5356C2.82516 39.4732 3.94432 40 5.11127 40H22.7113C23.8782 40 24.9974 39.4732 25.8225 38.5356C26.6477 37.5979 27.1113 36.3262 27.1113 35.0002V32.5002C27.1113 29.8482 26.1841 27.3047 24.5338 25.4294C22.8835 23.5541 20.6452 22.5005 18.3113 22.5005H9.51127ZM25.4613 17.2632C26.5129 15.1133 27.1113 12.6384 27.1113 10.0009C27.1117 7.45962 26.544 4.95983 25.4613 2.73617C26.7105 1.39303 28.2786 0.495268 29.9719 0.153823C31.6653 -0.187623 33.4095 0.0422183 34.9891 0.814941C36.5687 1.58766 37.9145 2.8694 38.86 4.50174C39.8056 6.13408 40.3095 8.04547 40.3095 9.99969C40.3095 11.9539 39.8056 13.8653 38.86 15.4976C37.9145 17.13 36.5687 18.4117 34.9891 19.1844C33.4095 19.9572 31.6653 20.187 29.9719 19.8456C28.2786 19.5041 26.7105 18.6063 25.4613 17.2632ZM30.3365 40C31.0845 38.53 31.5135 36.8226 31.5135 35.0002V32.5002C31.5175 28.8098 30.3202 25.248 28.1519 22.5005H35.9113C38.2452 22.5005 40.4835 23.5541 42.1338 25.4294C43.7841 27.3047 44.7113 29.8482 44.7113 32.5002V35.0002C44.7113 36.3262 44.2477 37.5979 43.4225 38.5356C42.5974 39.4732 41.4782 40 40.3113 40H30.3365Z" fill="white"/>
</svg>
